<?xml version="1.0" standalone="no"?>
<!DOCTYPE svg PUBLIC "-//W3C//DTD SVG 20010904//EN"
 "http://www.w3.org/TR/2001/REC-SVG-20010904/DTD/svg10.dtd">
<svg version="1.0" xmlns="http://www.w3.org/2000/svg"
 width="72.000000pt" height="72.000000pt" viewBox="0 0 72.000000 72.000000"
 preserveAspectRatio="xMidYMid meet">
<metadata>
Created by potrace 1.14, written by Peter Selinger 2001-2017
</metadata>
<g transform="translate(0.000000,72.000000) scale(0.100000,-0.100000)"
fill="#000000" stroke="none">
<path d="M284 660 c-3 -3 -9 -5 -13 -5 -20 0 -37 -33 -34 -65 5 -56 6 -59 15
-54 5 4 16 -2 23 -12 8 -11 15 -14 15 -8 0 7 13 10 30 9 24 -2 36 4 55 29 14
18 21 34 15 40 -4 4 -6 15 -3 22 3 9 -1 14 -12 14 -9 0 -14 4 -11 9 10 16 -65
36 -80 21z"/>
<path d="M490 579 c0 -6 -7 -9 -15 -6 -17 7 -56 -43 -60 -78 -2 -20 1 -23 11
-15 10 9 11 6 7 -11 -4 -15 -3 -20 5 -15 7 4 14 1 17 -6 6 -16 75 -21 75 -5 0
6 3 8 6 4 9 -8 34 18 34 35 0 8 6 20 13 27 10 11 10 13 0 7 -8 -4 -13 -1 -13
8 0 8 6 17 13 19 9 4 9 6 -1 6 -7 1 -20 8 -29 16 -8 8 -19 13 -24 10 -5 -4 -9
-1 -9 4 0 6 -7 11 -15 11 -8 0 -15 -5 -15 -11z"/>
<path d="M305 509 c-4 -6 -5 -12 -2 -15 2 -3 7 2 10 11 7 17 1 20 -8 4z"/>
<path d="M256 502 c-4 -6 -14 -8 -23 -5 -10 4 -14 2 -10 -4 3 -5 0 -10 -8 -10
-8 0 -12 4 -9 9 6 9 -25 -1 -42 -13 -6 -5 -14 -6 -17 -2 -4 3 -7 1 -7 -5 0 -7
-5 -12 -11 -12 -20 0 -45 -36 -56 -80 -5 -25 19 -90 34 -90 8 0 11 -4 8 -10
-3 -5 0 -10 7 -10 9 0 14 -13 15 -35 0 -19 -4 -35 -9 -35 -5 0 -2 -7 7 -16 11
-12 13 -20 5 -29 -8 -9 -8 -15 0 -20 6 -3 8 -11 5 -16 -4 -5 1 -9 9 -9 9 0 16
-4 16 -9 0 -10 38 -24 59 -21 7 1 10 -3 7 -8 -6 -11 8 -10 36 2 9 4 23 9 32
10 8 1 19 6 23 11 5 4 1 5 -7 0 -9 -5 -12 -5 -7 1 5 5 18 9 30 9 12 1 21 6 20
13 -2 7 1 11 5 9 13 -3 83 73 77 83 -4 6 -1 10 6 10 9 0 9 3 0 14 -9 11 -9 16
1 23 14 9 19 73 5 73 -4 0 -5 5 -2 10 4 6 1 18 -7 27 -11 14 -11 16 1 8 9 -5
5 5 -7 22 -12 17 -22 37 -22 45 0 11 -2 10 -9 -1 -7 -11 -10 -9 -16 7 -3 12
-9 21 -13 20 -14 -3 -42 14 -36 23 3 5 -5 5 -19 0 -16 -6 -28 -6 -36 2 -6 6
-11 7 -11 2 0 -6 -4 -4 -9 4 -6 9 -11 10 -15 3z"/>
<path d="M537 414 c3 -9 0 -12 -9 -9 -8 3 -18 -6 -25 -25 -6 -16 -7 -30 -2
-30 4 0 6 -6 3 -14 -5 -12 3 -22 38 -52 8 -6 25 -9 38 -7 14 2 30 4 37 5 7 1
10 5 7 10 -3 4 1 8 9 8 7 0 14 6 15 13 0 6 3 22 6 35 2 12 1 22 -5 22 -5 0 -8
3 -8 8 5 29 -16 42 -78 47 -23 2 -30 -1 -26 -11z"/>
<path d="M560 240 c0 -7 -6 -10 -12 -7 -19 6 -68 -51 -61 -70 5 -11 3 -14 -6
-8 -8 4 -7 -2 3 -17 9 -14 13 -28 9 -33 -5 -4 -3 -5 4 -2 6 4 13 3 15 -3 1 -5
21 -11 43 -13 32 -2 45 2 65 21 14 14 19 22 13 18 -15 -9 -16 -5 -4 28 8 20 6
29 -14 48 -40 39 -55 50 -55 38z"/>
</g>
</svg>
